<svg width="76" height="76" viewBox="0 0 76 76" fill="none" xmlns="http://www.w3.org/2000/svg">
<path fill-rule="evenodd" clip-rule="evenodd" d="M38 0C17.0132 0 0 17.0132 0 38C0 58.9868 17.0132 76 38 76C58.9868 76 76 58.9868 76 38C76 17.0132 58.9868 0 38 0ZM47.6591 17H42.7273V43.5682C42.7273 45.5568 42.2898 47.3267 41.4148 48.8778C40.553 50.4157 39.3068 51.6288 37.6761 52.517C36.0455 53.392 34.0966 53.8295 31.8295 53.8295C29.5625 53.8295 27.6136 53.392 25.983 52.517C24.3655 51.6288 23.1193 50.4157 22.2443 48.8778C21.3693 47.3267 20.9318 45.5568 20.9318 43.5682V17H16V43.9659C16 46.75 16.6496 49.2358 17.9489 51.4233C19.2614 53.5975 21.1042 55.3144 23.4773 56.5739C25.8504 57.8201 28.6345 58.4432 31.8295 58.4432C35.0246 58.4432 37.8087 57.8201 40.1818 56.5739C42.5549 55.3144 44.3911 53.5975 45.6903 51.4233C47.0028 49.2358 47.6591 46.75 47.6591 43.9659V17ZM60.4796 57.7273V17H55.5478V57.7273H60.4796Z" fill="black"/>
</svg>
